<mxfile host="app.diagrams.net" modified="2024-05-12T19:29:29.659Z" agent="Mozilla/5.0 (Windows NT 10.0; Win64; x64) AppleWebKit/537.36 (KHTML, like Gecko) Chrome/124.0.0.0 Safari/537.36" etag="BVZuVkXOZHp4gxi93TgX" version="24.3.1" type="github">
  <diagram name="Page-1" id="MYMejc5LSoNY-5G42k-A">
    <mxGraphModel dx="1434" dy="772" grid="1" gridSize="10" guides="1" tooltips="1" connect="1" arrows="1" fold="1" page="1" pageScale="1" pageWidth="850" pageHeight="1100" math="0" shadow="0">
      <root>
        <mxCell id="0" />
        <mxCell id="1" parent="0" />
        <mxCell id="5uqjTBUI3vPRA6_tNVrU-1" style="edgeStyle=orthogonalEdgeStyle;rounded=0;orthogonalLoop=1;jettySize=auto;html=1;exitX=0.5;exitY=1;exitDx=0;exitDy=0;entryX=0.5;entryY=0;entryDx=0;entryDy=0;" edge="1" parent="1" source="5uqjTBUI3vPRA6_tNVrU-2">
          <mxGeometry relative="1" as="geometry">
            <mxPoint x="240" y="180" as="targetPoint" />
          </mxGeometry>
        </mxCell>
        <mxCell id="5uqjTBUI3vPRA6_tNVrU-2" value="Start, add ticket" style="rounded=1;whiteSpace=wrap;html=1;" vertex="1" parent="1">
          <mxGeometry x="180" y="80" width="120" height="60" as="geometry" />
        </mxCell>
        <mxCell id="5uqjTBUI3vPRA6_tNVrU-19" value="&lt;font style=&quot;font-size: 17px;&quot;&gt;Clarifying Questions&lt;/font&gt;&lt;div style=&quot;&quot;&gt;&lt;span style=&quot;background-color: initial; font-size: 17px;&quot;&gt;Is processing time also random (assuming yes)&lt;/span&gt;&lt;/div&gt;&lt;div style=&quot;&quot;&gt;&lt;span style=&quot;background-color: initial; font-size: 17px;&quot;&gt;Is it the case that all the tickets in queue have to be processed (assuming no - there will be restrictions on working hours&lt;/span&gt;&lt;/div&gt;&lt;div style=&quot;&quot;&gt;&lt;span style=&quot;font-size: 0px; color: rgba(0, 0, 0, 0); font-family: monospace; text-wrap: nowrap; background-color: initial;&quot;&gt;Does3CmxGraphModel%3E%3Croot%3E%3CmxCell%20id%3D%220%22%2F%3E%3CmxCell%20id%3D%221%22%20parent%3D%220%22%2F%3E%3CmxCell%20id%3D%222%22%20value%3D%22%26lt%3Bspan%20style%3D%26quot%3Bfont-size%3A%2017px%3B%26quot%3B%26gt%3BTime%20Complexity%3A%20O(n)%20as%20we%20traverse%20through%20the%20list%26lt%3B%2Fspan%26gt%3B%26lt%3Bdiv%26gt%3B%26lt%3Bspan%20style%3D%26quot%3Bfont-size%3A%2017px%3B%26quot%3B%26gt%3BSpace%20Complexity%3A%26amp%3Bnbsp%3B%20O(1)%20as%20I%20just%20need%20three%20pointers%20(prev%2Fcurrent%2Fnext)%26lt%3Bbr%26gt%3B%26lt%3B%2Fspan%26gt%3B%26lt%3B%2Fdiv%26gt%3B%22%20style%3D%22text%3Bhtml%3D1%3Balign%3Dleft%3BverticalAlign%3Dmiddle%3BwhiteSpace%3Dwrap%3Brounded%3D0%3B%22%20vertex%3D%221%22%20parent%3D%221%22%3E%3CmxGeometry%20x%3D%2252%22%20y%3D%22680%22%20width%3D%22460%22%20height%3D%2285%22%20as%3D%22geometry%22%2F%3E%3C%2FmxCell%3E%3C%2Froot%3E%3C%2FmxGraphModel%3E&lt;/span&gt;&lt;/div&gt;" style="text;html=1;align=left;verticalAlign=middle;whiteSpace=wrap;rounded=0;" vertex="1" parent="1">
          <mxGeometry x="870" y="100" width="460" height="85" as="geometry" />
        </mxCell>
        <mxCell id="5uqjTBUI3vPRA6_tNVrU-20" value="&lt;span style=&quot;font-size: 17px;&quot;&gt;Time Complexity: O(1) for both adding and processing ticket as the operation is constant time (enqueueing/incrementing count of ticket to assign ticket number/updating cumulative time/dequeueing, etc)&amp;nbsp;&lt;/span&gt;&lt;div&gt;&lt;span style=&quot;font-size: 17px;&quot;&gt;Space Complexity:&amp;nbsp; O(1) as I just need limited number of pointers and other variables to help with the comparison&lt;br&gt;&lt;/span&gt;&lt;/div&gt;" style="text;html=1;align=left;verticalAlign=middle;whiteSpace=wrap;rounded=0;" vertex="1" parent="1">
          <mxGeometry x="870" y="330" width="460" height="110" as="geometry" />
        </mxCell>
        <mxCell id="5uqjTBUI3vPRA6_tNVrU-25" value="" style="edgeStyle=orthogonalEdgeStyle;rounded=0;orthogonalLoop=1;jettySize=auto;html=1;" edge="1" parent="1" source="5uqjTBUI3vPRA6_tNVrU-21" target="5uqjTBUI3vPRA6_tNVrU-22">
          <mxGeometry relative="1" as="geometry" />
        </mxCell>
        <mxCell id="5uqjTBUI3vPRA6_tNVrU-21" value="&lt;span style=&quot;background-color: initial;&quot;&gt;1) Keep track of cumulative time spent&lt;/span&gt;&lt;div&gt;&lt;div&gt;2) Assign a ticket number,&amp;nbsp;&lt;/div&gt;&lt;div&gt;3) Keep track of arriving time,&lt;/div&gt;&lt;div&gt;4) Print out a notification of new ticket added&lt;/div&gt;&lt;/div&gt;" style="rounded=1;whiteSpace=wrap;html=1;" vertex="1" parent="1">
          <mxGeometry x="110" y="180" width="260" height="60" as="geometry" />
        </mxCell>
        <mxCell id="5uqjTBUI3vPRA6_tNVrU-26" value="" style="edgeStyle=orthogonalEdgeStyle;rounded=0;orthogonalLoop=1;jettySize=auto;html=1;" edge="1" parent="1" source="5uqjTBUI3vPRA6_tNVrU-22" target="5uqjTBUI3vPRA6_tNVrU-23">
          <mxGeometry relative="1" as="geometry" />
        </mxCell>
        <mxCell id="5uqjTBUI3vPRA6_tNVrU-30" style="edgeStyle=orthogonalEdgeStyle;rounded=0;orthogonalLoop=1;jettySize=auto;html=1;exitX=1;exitY=0.5;exitDx=0;exitDy=0;entryX=1;entryY=0.5;entryDx=0;entryDy=0;" edge="1" parent="1" source="5uqjTBUI3vPRA6_tNVrU-22" target="5uqjTBUI3vPRA6_tNVrU-28">
          <mxGeometry relative="1" as="geometry">
            <Array as="points">
              <mxPoint x="400" y="320" />
              <mxPoint x="400" y="530" />
            </Array>
          </mxGeometry>
        </mxCell>
        <mxCell id="5uqjTBUI3vPRA6_tNVrU-22" value="Has the time limit of generating tickets been reached?" style="rhombus;whiteSpace=wrap;html=1;" vertex="1" parent="1">
          <mxGeometry x="160" y="280" width="160" height="80" as="geometry" />
        </mxCell>
        <mxCell id="5uqjTBUI3vPRA6_tNVrU-27" style="edgeStyle=orthogonalEdgeStyle;rounded=0;orthogonalLoop=1;jettySize=auto;html=1;exitX=0;exitY=0.5;exitDx=0;exitDy=0;entryX=0;entryY=0.5;entryDx=0;entryDy=0;" edge="1" parent="1" source="5uqjTBUI3vPRA6_tNVrU-23" target="5uqjTBUI3vPRA6_tNVrU-21">
          <mxGeometry relative="1" as="geometry" />
        </mxCell>
        <mxCell id="5uqjTBUI3vPRA6_tNVrU-23" value="Wait for a random period of time before the next ticket comes in" style="rounded=1;whiteSpace=wrap;html=1;" vertex="1" parent="1">
          <mxGeometry x="110" y="400" width="260" height="60" as="geometry" />
        </mxCell>
        <mxCell id="5uqjTBUI3vPRA6_tNVrU-28" value="End" style="rounded=1;whiteSpace=wrap;html=1;" vertex="1" parent="1">
          <mxGeometry x="180" y="500" width="120" height="60" as="geometry" />
        </mxCell>
        <mxCell id="5uqjTBUI3vPRA6_tNVrU-31" value="Yes" style="text;html=1;align=center;verticalAlign=middle;whiteSpace=wrap;rounded=0;" vertex="1" parent="1">
          <mxGeometry x="320" y="290" width="60" height="30" as="geometry" />
        </mxCell>
        <mxCell id="5uqjTBUI3vPRA6_tNVrU-32" value="No" style="text;html=1;align=center;verticalAlign=middle;whiteSpace=wrap;rounded=0;" vertex="1" parent="1">
          <mxGeometry x="240" y="360" width="60" height="30" as="geometry" />
        </mxCell>
        <mxCell id="5uqjTBUI3vPRA6_tNVrU-33" style="edgeStyle=orthogonalEdgeStyle;rounded=0;orthogonalLoop=1;jettySize=auto;html=1;exitX=0.5;exitY=1;exitDx=0;exitDy=0;entryX=0.5;entryY=0;entryDx=0;entryDy=0;" edge="1" parent="1" source="5uqjTBUI3vPRA6_tNVrU-34">
          <mxGeometry relative="1" as="geometry">
            <mxPoint x="670" y="180" as="targetPoint" />
          </mxGeometry>
        </mxCell>
        <mxCell id="5uqjTBUI3vPRA6_tNVrU-34" value="Start, process ticket" style="rounded=1;whiteSpace=wrap;html=1;" vertex="1" parent="1">
          <mxGeometry x="610" y="80" width="120" height="60" as="geometry" />
        </mxCell>
        <mxCell id="5uqjTBUI3vPRA6_tNVrU-53" value="" style="edgeStyle=orthogonalEdgeStyle;rounded=0;orthogonalLoop=1;jettySize=auto;html=1;" edge="1" parent="1" source="5uqjTBUI3vPRA6_tNVrU-36" target="5uqjTBUI3vPRA6_tNVrU-49">
          <mxGeometry relative="1" as="geometry" />
        </mxCell>
        <mxCell id="5uqjTBUI3vPRA6_tNVrU-57" style="edgeStyle=orthogonalEdgeStyle;rounded=0;orthogonalLoop=1;jettySize=auto;html=1;exitX=0;exitY=0.5;exitDx=0;exitDy=0;entryX=0;entryY=0.5;entryDx=0;entryDy=0;" edge="1" parent="1" source="5uqjTBUI3vPRA6_tNVrU-36" target="5uqjTBUI3vPRA6_tNVrU-39">
          <mxGeometry relative="1" as="geometry">
            <Array as="points">
              <mxPoint x="500" y="550" />
              <mxPoint x="500" y="220" />
            </Array>
          </mxGeometry>
        </mxCell>
        <mxCell id="5uqjTBUI3vPRA6_tNVrU-36" value="Wait for a random period of time as the processing time before polling the next ticket" style="rounded=1;whiteSpace=wrap;html=1;" vertex="1" parent="1">
          <mxGeometry x="540" y="520" width="260" height="60" as="geometry" />
        </mxCell>
        <mxCell id="5uqjTBUI3vPRA6_tNVrU-45" value="" style="edgeStyle=orthogonalEdgeStyle;rounded=0;orthogonalLoop=1;jettySize=auto;html=1;" edge="1" parent="1" source="5uqjTBUI3vPRA6_tNVrU-39" target="5uqjTBUI3vPRA6_tNVrU-41">
          <mxGeometry relative="1" as="geometry" />
        </mxCell>
        <mxCell id="5uqjTBUI3vPRA6_tNVrU-39" value="Is the queue empty?" style="rhombus;whiteSpace=wrap;html=1;" vertex="1" parent="1">
          <mxGeometry x="590" y="180" width="160" height="80" as="geometry" />
        </mxCell>
        <mxCell id="5uqjTBUI3vPRA6_tNVrU-48" value="" style="edgeStyle=orthogonalEdgeStyle;rounded=0;orthogonalLoop=1;jettySize=auto;html=1;" edge="1" parent="1" source="5uqjTBUI3vPRA6_tNVrU-41" target="5uqjTBUI3vPRA6_tNVrU-47">
          <mxGeometry relative="1" as="geometry" />
        </mxCell>
        <mxCell id="5uqjTBUI3vPRA6_tNVrU-41" value="&lt;span style=&quot;background-color: initial;&quot;&gt;1) Keep track of cumulative time spent&lt;/span&gt;&lt;div&gt;&lt;div&gt;2) Poll the old ticket in queue&lt;/div&gt;&lt;div&gt;3) print out a notification of the ticket processed&lt;/div&gt;&lt;/div&gt;" style="rounded=1;whiteSpace=wrap;html=1;" vertex="1" parent="1">
          <mxGeometry x="540" y="300" width="260" height="60" as="geometry" />
        </mxCell>
        <mxCell id="5uqjTBUI3vPRA6_tNVrU-44" value="No" style="text;html=1;align=center;verticalAlign=middle;whiteSpace=wrap;rounded=0;" vertex="1" parent="1">
          <mxGeometry x="670" y="260" width="60" height="30" as="geometry" />
        </mxCell>
        <mxCell id="5uqjTBUI3vPRA6_tNVrU-50" value="" style="edgeStyle=orthogonalEdgeStyle;rounded=0;orthogonalLoop=1;jettySize=auto;html=1;" edge="1" parent="1" source="5uqjTBUI3vPRA6_tNVrU-47" target="5uqjTBUI3vPRA6_tNVrU-36">
          <mxGeometry relative="1" as="geometry" />
        </mxCell>
        <mxCell id="5uqjTBUI3vPRA6_tNVrU-55" style="edgeStyle=orthogonalEdgeStyle;rounded=0;orthogonalLoop=1;jettySize=auto;html=1;exitX=1;exitY=0.5;exitDx=0;exitDy=0;entryX=1;entryY=0.5;entryDx=0;entryDy=0;" edge="1" parent="1" source="5uqjTBUI3vPRA6_tNVrU-47" target="5uqjTBUI3vPRA6_tNVrU-49">
          <mxGeometry relative="1" as="geometry">
            <Array as="points">
              <mxPoint x="820" y="440" />
              <mxPoint x="820" y="650" />
            </Array>
          </mxGeometry>
        </mxCell>
        <mxCell id="5uqjTBUI3vPRA6_tNVrU-47" value="Has the time limit of processing tickets been reached?" style="rhombus;whiteSpace=wrap;html=1;" vertex="1" parent="1">
          <mxGeometry x="590" y="400" width="160" height="80" as="geometry" />
        </mxCell>
        <mxCell id="5uqjTBUI3vPRA6_tNVrU-49" value="End" style="rounded=1;whiteSpace=wrap;html=1;" vertex="1" parent="1">
          <mxGeometry x="610" y="620" width="120" height="60" as="geometry" />
        </mxCell>
        <mxCell id="5uqjTBUI3vPRA6_tNVrU-51" value="No" style="text;html=1;align=center;verticalAlign=middle;whiteSpace=wrap;rounded=0;" vertex="1" parent="1">
          <mxGeometry x="670" y="480" width="60" height="30" as="geometry" />
        </mxCell>
        <mxCell id="5uqjTBUI3vPRA6_tNVrU-52" value="" style="endArrow=classic;html=1;rounded=0;entryX=1;entryY=0.5;entryDx=0;entryDy=0;exitX=1;exitY=0.5;exitDx=0;exitDy=0;" edge="1" parent="1" source="5uqjTBUI3vPRA6_tNVrU-39" target="5uqjTBUI3vPRA6_tNVrU-49">
          <mxGeometry width="50" height="50" relative="1" as="geometry">
            <mxPoint x="760" y="230" as="sourcePoint" />
            <mxPoint x="450" y="400" as="targetPoint" />
            <Array as="points">
              <mxPoint x="850" y="220" />
              <mxPoint x="850" y="430" />
              <mxPoint x="850" y="650" />
            </Array>
          </mxGeometry>
        </mxCell>
        <mxCell id="5uqjTBUI3vPRA6_tNVrU-54" value="Yes" style="text;html=1;align=center;verticalAlign=middle;whiteSpace=wrap;rounded=0;" vertex="1" parent="1">
          <mxGeometry x="750" y="195" width="60" height="30" as="geometry" />
        </mxCell>
        <mxCell id="5uqjTBUI3vPRA6_tNVrU-56" value="Yes" style="text;html=1;align=center;verticalAlign=middle;whiteSpace=wrap;rounded=0;" vertex="1" parent="1">
          <mxGeometry x="750" y="415" width="60" height="30" as="geometry" />
        </mxCell>
      </root>
    </mxGraphModel>
  </diagram>
</mxfile>
